<svg xmlns="http://www.w3.org/2000/svg" width="68" height="51" viewBox="0 0 68 51" fill="none">
  <path d="M49.62 50.54C43.2267 50.54 38.21 48.3933 34.57 44.1C30.93 39.76 29.11 33.4833 29.11 25.27C29.11 21.1633 29.5767 17.5467 30.51 14.42C31.4433 11.2933 32.7967 8.65667 34.57 6.51C36.3433 4.36333 38.49 2.75333 41.01 1.68C43.5767 0.56 46.4467 0 49.62 0C53.8667 0 57.4133 0.933334 60.26 2.8C63.1533 4.66667 65.4167 7.42 67.05 11.06L60.4 14.7C59.56 12.3667 58.2533 10.5233 56.48 9.17C54.7533 7.77 52.4667 7.07 49.62 7.07C45.84 7.07 42.8767 8.35333 40.73 10.92C38.5833 13.4867 37.51 17.0333 37.51 21.56V28.98C37.51 33.5067 38.5833 37.0533 40.73 39.62C42.8767 42.1867 45.84 43.47 49.62 43.47C52.56 43.47 54.94 42.7233 56.76 41.23C58.6267 39.69 60.0033 37.73 60.89 35.35L67.26 39.2C65.6267 42.7467 63.34 45.5233 60.4 47.53C57.46 49.5367 53.8667 50.54 49.62 50.54Z" fill="black"/>
  <path d="M29.54 1.14001V36.7C29.54 38.8467 29.19 40.7833 28.49 42.51C27.79 44.2367 26.7867 45.73 25.48 46.99C24.22 48.2034 22.6567 49.16 20.79 49.86C18.97 50.5133 16.94 50.84 14.7 50.84C10.4533 50.84 7.09333 49.72 4.62 47.48C2.19333 45.1933 0.653333 42.23 0 38.59L7.28 36.98C7.7 39.08 8.49333 40.7367 9.66 41.95C10.8733 43.1633 12.5533 43.77 14.7 43.77C16.8 43.77 18.48 43.1167 19.74 41.81C21 40.5033 21.63 38.52 21.63 35.86V7.72001H5.67V1.14001H29.54Z" fill="black"/>
</svg>
