<?xml version="1.0" encoding="UTF-8"?>
<svg id="Laag_1" data-name="Laag 1" xmlns="http://www.w3.org/2000/svg" viewBox="0 0 458 458">
  <path d="M258.2,181.76l-.2-.4c2.12-2.18,4.24-4.37,6.36-6.55l.47.11.81,1.41c3.46,3.15,3.26,7.9.05,11.14l-25.89,26.13c-4.36,4.4-10.69,5.83-16.4,3.37-5.4-2.32-8.59-7.56-8.83-13.4-.15-3.55-.38-6.92-1.03-10.39-.88-4.68-3.5-8.38-7.56-10.84-6.96-4.2-15.73-3.17-21.39,2.53s-6.61,14.49-2.33,21.4c2.25,3.63,5.54,6.17,9.75,7.18,3.57.86,7.15,1.14,10.85,1.18,4.91.06,9.47,1.87,12.53,5.92,4.12,5.44,4.08,13.39-.87,18.41l-26.82,27.26c-2.85,2.9-7.26,3.07-10.22.39-.65-.59-1.26-1.08-2.03-1.24-.1-.13-.24-.35-.16-.43,1.63-1.83,3.75-3.94,5.55-5.62.47-.68.93-.95,1.38-.8l25.57-25.9c1.47-1.49,1.56-3.77.92-5.32-.84-2.03-2.61-3.21-4.78-3.3-4.21-.18-8.31-.38-12.48-1.15s-8-2.4-11.34-5.14c-6.58-5.41-10.18-13.59-9.71-22.17.52-9.69,6.17-18.34,15.34-22.64,12.61-5.91,28.04-.71,34.54,11.44,2.84,5.32,3.33,13.27,3.66,19.45.11,2.04,1.08,3.76,3.05,4.65,1.37.61,3.86.83,5.31-.63l25.91-26.08Z"/>
  <path d="M200.24,276.56l.2.4c-2.12,2.18-4.24,4.37-6.36,6.55l-.47-.11-.81-1.41c-3.46-3.15-3.26-7.9-.05-11.14l25.89-26.13c4.36-4.4,10.69-5.83,16.4-3.37,5.4,2.32,8.59,7.56,8.83,13.4.15,3.55.38,6.92,1.03,10.39.88,4.68,3.5,8.38,7.56,10.84,6.96,4.2,15.73,3.17,21.39-2.53,5.65-5.68,6.61-14.49,2.33-21.4-2.25-3.63-5.54-6.17-9.75-7.18-3.57-.86-7.15-1.14-10.85-1.18-4.91-.06-9.47-1.87-12.53-5.92-4.12-5.44-4.08-13.39.87-18.41l26.82-27.26c2.85-2.9,7.26-3.07,10.22-.39.65.59,1.26,1.08,2.03,1.24.1.13.24.35.16.43-1.63,1.83-3.75,3.94-5.55,5.62-.47.68-.93.95-1.38.8l-25.57,25.9c-1.47,1.49-1.56,3.77-.92,5.32.84,2.03,2.61,3.21,4.78,3.3,4.21.18,8.31.38,12.48,1.15,4.22.78,8,2.4,11.34,5.14,6.58,5.41,10.18,13.59,9.71,22.17-.52,9.69-6.17,18.34-15.34,22.64-12.61,5.91-28.04.71-34.54-11.44-2.84-5.32-3.33-13.27-3.66-19.45-.11-2.04-1.08-3.76-3.05-4.65-1.37-.61-3.86-.83-5.31.63l-25.91,26.08Z"/>
  <g>
    <path d="M254.65,155.57c-6.79,5.27-10.86,12.86-11.93,21.19-.32,2.52-2.1,4.33-4.63,4.43-2.41-.02-4.46-1.79-4.78-4.42,1.98-20.96,19.33-36.84,40.35-37.44,13.27-.38,26.13,5.26,34.58,15.54,6.81,8.28,10.3,18.46,9.93,29.12-.7,20.78-15.6,37.52-36.32,40.12-2.71.34-4.87-1.53-5.14-4.26-.24-2.33,1.56-4.72,4.02-5.02,12.28-1.5,22.47-9.71,26.41-21.39,5.23-15.48-1.21-32.62-15.55-40.6-11.69-6.5-26.22-5.59-36.94,2.73Z"/>
    <path d="M276.23,199.77l6.77-6.85c1.4.28,2.91-.15,3.62-1.42.65-1.16.77-2.91-.35-3.97-3.12-2.96-3.42-7.76-.53-10.98,1.24-1.38,1.18-3.26.06-4.6-1-1.19-3.2-1.82-4.54-.57-3.27,3.05-8.01,3.15-11.3,0-1.16-1.12-2.92-1.13-4.11-.3s-1.72,2.32-1.32,3.75l-6.73,6.7c-4.01-4.92-3.56-12.23.89-16.68,4.44-4.45,11.65-5,16.78-.95,4.99-3.72,11.8-3.33,16.37.97,4.72,4.43,5.55,11.61,1.72,16.92,1.75,2.25,2.72,4.78,2.84,7.71.19,4.98-2.62,9.59-7.37,11.79-4,1.85-9.1,1.32-12.8-1.5Z"/>
  </g>
  <g>
    <path d="M177.55,243.14c-15.3,1.89-27,13.89-28.35,29.26l-.15,3.94c.24,11.28,5.95,21.61,15.47,27.69,10.03,6.41,22.67,7.25,33.35,1.95,9.58-4.75,16.04-13.85,17.32-24.48.36-3,2.76-5.29,5.93-4.58,2.18.49,3.77,2.69,3.5,4.99-1.43,12.31-8.07,23.4-18.57,30.13-8.98,5.76-19.78,7.78-30.28,6.03-14.65-2.44-27.09-12.39-32.77-26.12-2.42-5.85-3.44-12.08-3.17-18.39.87-20.43,15.83-36.92,36.11-39.64,2.52-.34,4.77,1.25,5.23,3.82.39,2.16-1.01,5.05-3.63,5.38Z"/>
    <path d="M181.8,258.32l-6.64,6.78c-1.46-.39-3.03.19-3.82,1.54-.68,1.17-.62,2.85.46,3.94,3.11,3.15,3.09,7.92.15,11.17-1.34,1.47-.73,3.72.69,4.82s3.31.87,4.75-.43c3.01-2.72,7.72-2.4,10.52.43,1.23,1.24,2.81,1.12,4.11.51,1.56-.73,1.34-2.5,1.58-3.68l6.63-6.83c3.06,3.82,3.56,9.81.92,14.12-2.21,3.62-5.63,5.75-9.54,6.06-3.43.28-6.54-.61-9.22-2.69-5.14,3.87-12.13,3.18-16.6-1.24-4.51-4.47-5.24-11.34-1.48-16.61-1.94-2.58-2.93-5.57-2.73-8.89.29-4.73,3.22-8.96,7.87-10.8,3.91-1.55,8.86-1.06,12.33,1.81Z"/>
  </g>
</svg>