<?xml version="1.0" encoding="UTF-8"?>
<svg id="Laag_1" xmlns="http://www.w3.org/2000/svg" viewBox="0 0 458 458">
  <defs>
    <style>
      .cls-1 {
        fill: #fff;
      }
    </style>
  </defs>
  <rect width="458" height="458" rx="88" fill="#000"/>
  <path class="cls-1" d="M237.22,176.15c-3.62,3.65-9.86,3.09-13.27,1.56-4.93-2.21-7.34-6.51-7.62-11.62-.84-15.44-2.05-35.3-9.15-48.58-16.24-30.37-54.78-43.34-86.29-28.58-22.91,10.73-37.01,32.37-38.31,56.56-1.15,21.44,7.82,41.86,24.27,55.38,8.34,6.86,17.78,10.91,28.32,12.85,10.41,1.92,20.65,2.42,31.17,2.86,5.42.23,9.85,3.17,11.95,8.24,1.61,3.89,1.39,9.57-2.29,13.3l-14.16,14.34,16.46,16.24,14.51-14.75c12.35-12.55,12.45-32.41,2.16-46.01-7.65-10.12-19.04-14.65-31.31-14.79-9.25-.11-18.18-.8-27.11-2.96-10.5-2.53-18.74-8.87-24.36-17.95-10.69-17.28-8.29-39.28,5.82-53.47,14.15-14.24,36.06-16.83,53.44-6.33,10.14,6.13,16.71,15.37,18.9,27.07,1.62,8.66,2.2,17.1,2.57,25.96.61,14.59,8.58,27.68,22.07,33.48,14.27,6.13,30.08,2.57,40.98-8.43l17.2-17.36-16.56-16.56-19.4,19.53Z"/>
  <path class="cls-1" d="M320.81,96.97s-1.8-1.31-3.02-3.32l-16.82,16.75.67.88-45.03,45.33,16.56,16.56,47.48-47.92c8.01-8.09,8.79-20.41.15-28.29Z"/>
  <path class="cls-1" d="M347.01,155.98c1.13.37,2.28-.29,3.45-1.99,4.5-4.18,9.8-9.46,13.87-14.03.2-.22-.15-.76-.41-1.08-1.92-.39-3.46-1.62-5.08-3.09-7.39-6.69-18.41-6.26-25.53.98l-47.89,48.66,16.36,16.36,45.23-45.8Z"/>
  <path class="cls-1" d="M352.26,257.93c-8.34-6.86-17.78-10.91-28.32-12.85-10.41-1.92-20.65-2.42-31.17-2.86-5.42-.23-9.85-3.17-11.95-8.24-1.61-3.89-1.39-9.57,2.29-13.3l18.67-18.9-16.36-16.36-19.12,19.43c-12.35,12.55-12.45,32.41-2.16,46.01,7.65,10.12,19.04,14.65,31.31,14.79,9.25.11,18.18.8,27.11,2.96,10.5,2.53,18.74,8.87,24.36,17.95,10.69,17.28,8.29,39.28-5.82,53.47-14.15,14.24-36.06,16.83-53.44,6.33-10.14-6.13-16.71-15.37-18.9-27.07-1.62-8.66-2.2-17.1-2.57-25.96-.61-14.59-8.58-27.68-22.07-33.48-14.27-6.13-30.08-2.57-40.98,8.43l-12.49,12.61,16.68,16.46,14.57-14.67c3.62-3.65,9.86-3.09,13.27-1.56,4.93,2.21,7.34,6.51,7.62,11.62.84,15.44,2.05,35.3,9.15,48.58,16.24,30.37,54.78,43.34,86.29,28.58,22.91-10.73,37.01-32.37,38.31-56.56,1.15-21.44-7.82-41.86-24.27-55.38Z"/>
  <path class="cls-1" d="M426.98,43.77c-21.12-25.67-53.25-39.76-86.4-38.81-52.49,1.5-95.85,41.17-100.8,93.54.79,6.56,5.91,10.99,11.94,11.04,6.3-.23,10.75-4.78,11.56-11.06,2.67-20.81,12.85-39.77,29.81-52.93,26.79-20.8,63.1-23.07,92.3-6.83,35.83,19.93,51.92,62.75,38.86,101.43-9.86,29.19-35.3,49.69-65.99,53.44-6.15.75-10.64,6.71-10.05,12.54.69,6.81,6.09,11.48,12.85,10.63,51.77-6.5,88.99-48.31,90.75-100.23.9-26.65-7.81-52.09-24.82-72.76Z"/>
  <path class="cls-1" d="M397.41,130.29c-.28-7.34-2.72-13.65-7.08-19.27,9.56-13.26,7.48-31.18-4.31-42.26-11.42-10.74-28.44-11.72-40.9-2.42-12.82-10.11-30.81-8.73-41.91,2.39-11.12,11.13-12.25,29.39-2.23,41.69l16.82-16.75c-1.81-3.56.25-7.24,3.3-9.36,2.97-2.07,7.38-2.04,10.28.75,8.2,7.89,20.05,7.64,28.22.02,3.34-3.12,8.84-1.55,11.34,1.43,2.81,3.35,2.96,8.04-.15,11.49-7.22,8.02-6.47,20.02,1.32,27.42,2.8,2.66,2.49,7.02.87,9.92-1.78,3.19-5.55,4.26-9.05,3.56l-16.91,17.11c9.25,7.05,21.99,8.37,31.99,3.75,11.88-5.48,18.89-17.01,18.42-29.45Z"/>
  <path class="cls-1" d="M144.18,355.9s1.8,1.31,3.02,3.32l16.82-16.75-.67-.88,45.03-45.33-16.56-16.56-47.48,47.92c-8.01,8.09-8.79,20.41-.15,28.29Z"/>
  <path class="cls-1" d="M117.98,296.89c-1.13-.37-2.28.29-3.45,1.99-4.5,4.18-9.8,9.46-13.87,14.03-.2.22.15.76.41,1.08,1.92.39,3.46,1.62,5.08,3.09,7.39,6.69,18.41,6.26,25.53-.98l47.89-48.66-16.36-16.36-45.23,45.8Z"/>
  <path class="cls-1" d="M67.57,322.59c.28,7.34,2.72,13.65,7.08,19.27-9.56,13.26-7.48,31.18,4.31,42.26,11.42,10.74,28.44,11.72,40.9,2.42,12.82,10.11,30.81,8.73,41.91-2.39,11.12-11.13,12.25-29.39,2.23-41.69l-16.82,16.75c1.81,3.56-.25,7.24-3.3,9.36-2.97,2.07-7.38,2.04-10.28-.75-8.2-7.89-20.05-7.64-28.22-.02-3.34,3.12-8.84,1.55-11.34-1.43-2.81-3.35-2.96-8.04.15-11.49,7.22-8.02,6.47-20.02-1.32-27.42-2.8-2.66-2.49-7.02-.87-9.92,1.78-3.19,5.55-4.26,9.05-3.56l16.91-17.11c-9.25-7.05-21.99-8.37-31.99-3.75-11.88,5.48-18.89,17.01-18.42,29.45Z"/>
  <path class="cls-1" d="M209.32,348.73c-7.91-1.78-13.91,3.94-14.81,11.45-3.18,26.55-19.33,49.27-43.26,61.15-26.69,13.24-58.25,11.14-83.32-4.88-23.77-15.19-38.04-41-38.65-69.18l.36-9.84c3.35-38.39,32.6-68.37,70.82-73.09,6.55-.81,10.04-8.05,9.07-13.43-1.16-6.42-6.78-10.39-13.07-9.55-50.67,6.79-88.04,47.99-90.22,99.03-.67,15.75,1.86,31.32,7.91,45.94,14.2,34.3,45.27,59.16,81.88,65.25,26.22,4.37,53.21-.69,75.64-15.08,26.23-16.82,42.83-44.54,46.4-75.28.67-5.75-3.3-11.25-8.75-12.48Z"/>
</svg>
